{"title":"The.Place.Beyond.the.Pines.2012.DVDSCR.XviD.AC3-PTpOWeR","uid":8436837,"size":1476553180,"categoryP":"video","categoryS":"movies","magnet":"?xt=urn:btih:8a35856b4edf428d98d79d540a46a0ffcb6b4563&amp;dn=The.Place.Beyond.the.Pines.2012.DVDSCR.XviD.AC3-PTpOWeR&amp;tr=udp%3A%2F%2Ftracker.openbittorrent.com%3A80&amp;tr=udp%3A%2F%2Fopen.demonii.com%3A1337&amp;tr=udp%3A%2F%2Ftracker.coppersurfer.tk%3A6969&amp;tr=udp%3A%2F%2Fexodus.desync.com%3A6969","seeders":0,"leechers":0,"uploader":"xxxlavalxxx","files":-1,"time":1367665729,"description":"\n\n &lt;a href=&quot;\nhttp://www.imdb.com/title/tt1817273/&quot; rel=&quot;nofollow&quot; target=&quot;_NEW&quot;&gt;\nhttp://www.imdb.com/title/tt1817273/&lt;/a&gt;\n\n\n\nPlot: A motorcycle stunt rider turns to robbing banks as a way to provide for his lover and their newborn child, a decision that puts him on a collision course with an ambitious rookie cop navigating a department ruled by a corrupt detective. \n\n\n\nDirector:\n Derek Cianfrance \n\nWriters:\n Derek Cianfrance, Ben Coccio\n\nStars:\n Ryan Gosling, Eva Mendes, Anthony Pizza \n\nGenres:\n  Crime |  Drama \n\nCountry:\n USA \n\nLanguage:\n English \n\n\n\n\nFormat                                   : AVI\nFormat/Info                              : Audio Video Interleave\nFile size                                : 1.38 GiB\nDuration                                 : 2h 20mn\nOverall bit rate                         : 1 404 Kbps\n\nVideo\nID                                       : 0\nFormat                                   : MPEG-4 Visual\nFormat profile                           : Simple@L3\nFormat settings, BVOP                    : No\nFormat settings, QPel                    : No\nFormat settings, GMC                     : No warppoints\nFormat settings, Matrix                  : Default (H.263)\nCodec ID                                 : XVID\nCodec ID/Hint                            : XviD\nDuration                                 : 2h 20mn\nSource duration                          : 2h 20mn\nBit rate                                 : 1 202 Kbps\nWidth                                    : 720 pixels\nHeight                                   : 304 pixels\nDisplay aspect ratio                     : 2.35:1\nFrame rate                               : 23.976 fps\nColor space                              : YUV\nChroma subsampling                       : 4:2:0\nBit depth                                : 8 bits\nScan type                                : Progressive\nCompression mode                         : Lossy\nBits/(Pixel*Frame)                       : 0.229\nStream size                              : 1.18 GiB (86%)\nWriting library                          : XviD 1.1.2 (UTC 2006-11-01)\n\nAudio\nID                                       : 1\nFormat                                   : AC-3\nFormat/Info                              : Audio Coding 3\nMode extension                           : CM (complete main)\nFormat settings, Endianness              : Big\nCodec ID                                 : 2000\nDuration                                 : 2h 20mn\nBit rate mode                            : Constant\nBit rate                                 : 192 Kbps\nChannel(s)                               : 2 channels\nChannel positions                        : Front: L R\nSampling rate                            : 48.0 KHz\nBit depth                                : 16 bits\nCompression mode                         : Lossy\nStream size                              : 193 MiB (14%)\nAlignment                                : Aligned on interleaves\nInterleave, duration                     : 32 ms (0.77 video frame)\n\n\n\n\n    &lt;a href=&quot;\thttp://addpix.net/viewer.php?file=59536689131635379769.jpg&quot; rel=&quot;nofollow&quot; target=&quot;_NEW&quot;&gt;\thttp://addpix.net/viewer.php?file=59536689131635379769.jpg&lt;/a&gt;\n    &lt;a href=&quot;\thttp://addpix.net/viewer.php?file=43758119991393558143.jpg&quot; rel=&quot;nofollow&quot; target=&quot;_NEW&quot;&gt;\thttp://addpix.net/viewer.php?file=43758119991393558143.jpg&lt;/a&gt;\n    &lt;a href=&quot;\thttp://addpix.net/viewer.php?file=29857721558933023590.jpg&quot; rel=&quot;nofollow&quot; target=&quot;_NEW&quot;&gt;\thttp://addpix.net/viewer.php?file=29857721558933023590.jpg&lt;/a&gt;\n    &lt;a href=&quot;\thttp://addpix.net/viewer.php?file=23638412674993577322.jpg&quot; rel=&quot;nofollow&quot; target=&quot;_NEW&quot;&gt;\thttp://addpix.net/viewer.php?file=23638412674993577322.jpg&lt;/a&gt;\n    &lt;a href=&quot;\thttp://addpix.net/viewer.php?file=40191282043887860062.jpg&quot; rel=&quot;nofollow&quot; target=&quot;_NEW&quot;&gt;\thttp://addpix.net/viewer.php?file=40191282043887860062.jpg&lt;/a&gt;\n    &lt;a href=&quot;\thttp://addpix.net/viewer.php?file=19842413614992570582.jpg&quot; rel=&quot;nofollow&quot; target=&quot;_NEW&quot;&gt;\thttp://addpix.net/viewer.php?file=19842413614992570582.jpg&lt;/a&gt;","torrent":{"xt":"urn:btih:8a35856b4edf428d98d79d540a46a0ffcb6b4563","amp;dn":"The.Place.Beyond.the.Pines.2012.DVDSCR.XviD.AC3-PTpOWeR","amp;tr":["udp%3A%2F%2Ftracker.openbittorrent.com%3A80","udp%3A%2F%2Fopen.demonii.com%3A1337","udp%3A%2F%2Ftracker.coppersurfer.tk%3A6969","udp%3A%2F%2Fexodus.desync.com%3A6969"],"infoHash":"8a35856b4edf428d98d79d540a46a0ffcb6b4563","infoHashBuffer":{"type":"Buffer","data":[138,53,133,107,78,223,66,141,152,215,157,84,10,70,160,255,203,107,69,99]},"announce":[],"urlList":[]}}